<svg xmlns="http://www.w3.org/2000/svg" xmlns:xlink="http://www.w3.org/1999/xlink" contentStyleType="text/css" height="1115px" preserveAspectRatio="none" style="width:577px;height:1115px;background:#FFFFFF;" version="1.1" viewBox="0 0 577 1115" width="577px" zoomAndPan="magnify"><defs/><g><text fill="#000000" font-family="sans-serif" font-size="14" font-weight="bold" lengthAdjust="spacing" textLength="381.1855" x="91.1791" y="22.9951">Program Sequence Task Detailed State Diagram</text><ellipse cx="381.64" cy="53.2969" fill="#222222" rx="10" ry="10" style="stroke:#222222;stroke-width:1.0;"/><g id="X0"><rect fill="#F1F1F1" height="50" rx="12.5" ry="12.5" style="stroke:#181818;stroke-width:0.5;" width="50" x="356.64" y="140.2969"/><line style="stroke:#181818;stroke-width:0.5;" x1="356.64" x2="406.64" y1="166.5938" y2="166.5938"/><text fill="#000000" font-family="sans-serif" font-size="14" lengthAdjust="spacing" textLength="18.498" x="372.391" y="158.292">X0</text></g><g id="Motor1On"><rect fill="#F1F1F1" height="50" rx="12.5" ry="12.5" style="stroke:#181818;stroke-width:0.5;" width="89.2549" x="245.02" y="267.2969"/><line style="stroke:#181818;stroke-width:0.5;" x1="245.02" x2="334.2749" y1="293.5938" y2="293.5938"/><text fill="#000000" font-family="sans-serif" font-size="14" lengthAdjust="spacing" textLength="69.2549" x="255.02" y="285.292">Motor1On</text></g><g id="X1"><rect fill="#F1F1F1" height="50" rx="12.5" ry="12.5" style="stroke:#181818;stroke-width:0.5;" width="50" x="260.64" y="394.2969"/><line style="stroke:#181818;stroke-width:0.5;" x1="260.64" x2="310.64" y1="420.5938" y2="420.5938"/><text fill="#000000" font-family="sans-serif" font-size="14" lengthAdjust="spacing" textLength="18.498" x="276.391" y="412.292">X1</text></g><g id="WaitingForSensor"><rect fill="#F1F1F1" height="50" rx="12.5" ry="12.5" style="stroke:#181818;stroke-width:0.5;" width="143.8125" x="187.74" y="521.2969"/><line style="stroke:#181818;stroke-width:0.5;" x1="187.74" x2="331.5525" y1="547.5938" y2="547.5938"/><text fill="#000000" font-family="sans-serif" font-size="14" lengthAdjust="spacing" textLength="123.8125" x="197.74" y="539.292">WaitingForSensor</text></g><g id="LeftMotor"><rect fill="#F1F1F1" height="50" rx="12.5" ry="12.5" style="stroke:#181818;stroke-width:0.5;" width="87.2861" x="7" y="663.2969"/><line style="stroke:#181818;stroke-width:0.5;" x1="7" x2="94.2861" y1="689.5938" y2="689.5938"/><text fill="#000000" font-family="sans-serif" font-size="14" lengthAdjust="spacing" textLength="67.2861" x="17" y="681.292">LeftMotor</text></g><g id="RightMotor"><rect fill="#F1F1F1" height="50" rx="12.5" ry="12.5" style="stroke:#181818;stroke-width:0.5;" width="97.3213" x="210.98" y="663.2969"/><line style="stroke:#181818;stroke-width:0.5;" x1="210.98" x2="308.3013" y1="689.5938" y2="689.5938"/><text fill="#000000" font-family="sans-serif" font-size="14" lengthAdjust="spacing" textLength="77.3213" x="220.98" y="681.292">RightMotor</text></g><g id="X2"><rect fill="#F1F1F1" height="50" rx="12.5" ry="12.5" style="stroke:#181818;stroke-width:0.5;" width="50" x="234.64" y="805.2969"/><line style="stroke:#181818;stroke-width:0.5;" x1="234.64" x2="284.64" y1="831.5938" y2="831.5938"/><text fill="#000000" font-family="sans-serif" font-size="14" lengthAdjust="spacing" textLength="18.498" x="250.391" y="823.292">X2</text></g><g id="Delay2"><rect fill="#F1F1F1" height="50" rx="12.5" ry="12.5" style="stroke:#181818;stroke-width:0.5;" width="69.0547" x="240.12" y="932.2969"/><line style="stroke:#181818;stroke-width:0.5;" x1="240.12" x2="309.1747" y1="958.5938" y2="958.5938"/><text fill="#000000" font-family="sans-serif" font-size="14" lengthAdjust="spacing" textLength="49.0547" x="250.12" y="950.292">Delay2</text></g><g id="ConveyorFreeCheck"><rect fill="#F1F1F1" height="50" rx="12.5" ry="12.5" style="stroke:#181818;stroke-width:0.5;" width="160.8203" x="295.23" y="1059.2969"/><line style="stroke:#181818;stroke-width:0.5;" x1="295.23" x2="456.0503" y1="1085.5938" y2="1085.5938"/><text fill="#000000" font-family="sans-serif" font-size="14" lengthAdjust="spacing" textLength="140.8203" x="305.23" y="1077.292">ConveyorFreeCheck</text></g><!--link *start* to X0--><g id="link_*start*_X0"><path d="M381.64,63.6769 C381.64,80.4069 381.64,109.8869 381.64,133.9269 " fill="none" id="*start*-to-X0" style="stroke:#181818;stroke-width:1.0;"/><polygon fill="#181818" points="381.64,139.9269,385.64,130.9269,381.64,134.9269,377.64,130.9269,381.64,139.9269" style="stroke:#181818;stroke-width:1.0;"/><text fill="#000000" font-family="sans-serif" font-size="13" lengthAdjust="spacing" textLength="74.5151" x="382.64" y="106.3638">Initial State</text></g><!--link X0 to Motor1On--><g id="link_X0_Motor1On"><path d="M356.22,173.3969 C334.23,181.0369 303.82,195.5469 289.64,220.2969 C281.62,234.3069 280.9534,246.6383 283.0434,261.1283 " fill="none" id="X0-to-Motor1On" style="stroke:#181818;stroke-width:1.0;"/><polygon fill="#181818" points="283.9,267.0669,286.5742,257.588,283.1862,262.1181,278.6561,258.7301,283.9,267.0669" style="stroke:#181818;stroke-width:1.0;"/><text fill="#000000" font-family="sans-serif" font-size="13" lengthAdjust="spacing" textLength="156.2031" x="290.64" y="233.3638">GVL.Motor1_State = ON</text></g><!--link Motor1On to X1--><g id="link_Motor1On_X1"><path d="M286.9,317.7269 C285.99,326.9769 285.09,337.6069 284.64,347.2969 C283.93,362.8169 283.9763,374.2597 284.3963,387.9697 " fill="none" id="Motor1On-to-X1" style="stroke:#181818;stroke-width:1.0;"/><polygon fill="#181818" points="284.58,393.9669,288.3025,384.8486,284.4269,388.9692,280.3063,385.0936,284.58,393.9669" style="stroke:#181818;stroke-width:1.0;"/><text fill="#000000" font-family="sans-serif" font-size="13" lengthAdjust="spacing" textLength="161.4336" x="285.64" y="360.3638">GVL.Motor2_State = OFF</text></g><!--link X1 to WaitingForSensor--><g id="link_X1_WaitingForSensor"><path d="M280.57,444.6969 C275.99,466.7169 270.5003,493.0823 265.9303,515.0823 " fill="none" id="X1-to-WaitingForSensor" style="stroke:#181818;stroke-width:1.0;"/><polygon fill="#181818" points="264.71,520.9569,270.4569,512.9585,265.7269,516.0614,262.6241,511.3314,264.71,520.9569" style="stroke:#181818;stroke-width:1.0;"/><text fill="#000000" font-family="sans-serif" font-size="13" lengthAdjust="spacing" textLength="164.2329" x="274.64" y="487.3638">Wait for GVL.SensorInput</text></g><!--link WaitingForSensor to LeftMotor--><g id="link_WaitingForSensor_LeftMotor"><path d="M198.69,571.7569 C180.67,580.0769 161.32,590.1269 144.64,601.2969 C117.99,619.1369 95.5713,640.0635 77.4913,658.5835 " fill="none" id="WaitingForSensor-to-LeftMotor" style="stroke:#181818;stroke-width:1.0;"/><polygon fill="#181818" points="73.3,662.8769,82.4492,659.2311,76.7928,659.2991,76.7248,653.6427,73.3,662.8769" style="stroke:#181818;stroke-width:1.0;"/><text fill="#000000" font-family="sans-serif" font-size="13" lengthAdjust="spacing" textLength="105.6504" x="145.64" y="621.8638">SensorInput = 1</text></g><!--link WaitingForSensor to RightMotor--><g id="link_WaitingForSensor_RightMotor"><path d="M259.64,571.6869 C259.64,597.3769 259.64,631.5969 259.64,657.1869 " fill="none" id="WaitingForSensor-to-RightMotor" style="stroke:#181818;stroke-width:1.0;"/><polygon fill="#181818" points="259.64,663.1869,263.64,654.1869,259.64,658.1869,255.64,654.1869,259.64,663.1869" style="stroke:#181818;stroke-width:1.0;"/><text fill="#000000" font-family="sans-serif" font-size="13" lengthAdjust="spacing" textLength="105.6504" x="260.64" y="621.8638">SensorInput = 2</text></g><!--link LeftMotor to X2--><g id="link_LeftMotor_X2"><path d="M45.7,713.5969 C43.32,732.5469 43.53,758.3869 57.64,775.2969 C80.26,802.4069 179.1643,818.6813 228.2443,825.3313 " fill="none" id="LeftMotor-to-X2" style="stroke:#181818;stroke-width:1.0;"/><polygon fill="#181818" points="234.19,826.1369,225.8086,820.9647,229.2353,825.4655,224.7344,828.8923,234.19,826.1369" style="stroke:#181818;stroke-width:1.0;"/><text fill="#000000" font-family="sans-serif" font-size="13" lengthAdjust="spacing" textLength="138.0298" x="83.6498" y="756.3638">Motor2 Left Direction</text><text fill="#000000" font-family="sans-serif" font-size="13" lengthAdjust="spacing" textLength="188.0493" x="58.64" y="771.4966">GVL.Motor2_DirectionL = ON</text></g><!--link RightMotor to X2--><g id="link_RightMotor_X2"><path d="M258,713.7469 C257.45,722.9969 256.91,733.6269 256.64,743.2969 C256.25,757.5169 256.25,761.0769 256.64,775.2969 C256.91,784.9669 257.0939,789.6075 257.6439,798.8575 " fill="none" id="RightMotor-to-X2" style="stroke:#181818;stroke-width:1.0;"/><polygon fill="#181818" points="258,804.8469,261.4588,795.6253,257.7032,799.8557,253.4729,796.1002,258,804.8469" style="stroke:#181818;stroke-width:1.0;"/><text fill="#000000" font-family="sans-serif" font-size="13" lengthAdjust="spacing" textLength="147.3481" x="278.8856" y="756.3638">Motor2 Right Direction</text><text fill="#000000" font-family="sans-serif" font-size="13" lengthAdjust="spacing" textLength="189.8394" x="257.64" y="771.4966">GVL.Motor2_DirectionR = ON</text></g><!--link X2 to Delay2--><g id="link_X2_Delay2"><path d="M262.57,855.6969 C265.21,877.7169 268.3651,903.9996 271.0051,925.9996 " fill="none" id="X2-to-Delay2" style="stroke:#181818;stroke-width:1.0;"/><polygon fill="#181818" points="271.72,931.9569,274.6192,922.5444,271.1243,926.9925,266.6762,923.4976,271.72,931.9569" style="stroke:#181818;stroke-width:1.0;"/><text fill="#000000" font-family="sans-serif" font-size="13" lengthAdjust="spacing" textLength="121.7671" x="268.64" y="898.3638">Start Delay (2 sec)</text></g><!--link Delay2 to ConveyorFreeCheck--><g id="link_Delay2_ConveyorFreeCheck"><path d="M271.29,982.7869 C270.54,997.3769 271.91,1015.6469 280.64,1029.2969 C288.52,1041.6069 295.1322,1048.255 307.6822,1055.935 " fill="none" id="Delay2-to-ConveyorFreeCheck" style="stroke:#181818;stroke-width:1.0;"/><polygon fill="#181818" points="312.8,1059.0669,307.2112,1050.9573,308.5352,1056.457,303.0354,1057.781,312.8,1059.0669" style="stroke:#181818;stroke-width:1.0;"/><text fill="#000000" font-family="sans-serif" font-size="13" lengthAdjust="spacing" textLength="165.8643" x="281.64" y="1025.3638">Check if Conveyor is Free</text></g><!--link ConveyorFreeCheck to X0--><g id="link_ConveyorFreeCheck_X0"><path d="M420.08,1058.9569 C431.7,1050.8169 443.29,1040.8369 451.64,1029.2969 C471.02,1002.5369 473.64,991.3369 473.64,958.2969 C473.64,291.2969 473.64,291.2969 473.64,291.2969 C473.64,258.2569 470.49,247.4269 451.64,220.2969 C440.08,203.6569 426.906,193.0318 411.936,183.5318 " fill="none" id="ConveyorFreeCheck-to-X0" style="stroke:#181818;stroke-width:1.0;"/><polygon fill="#181818" points="406.87,180.3169,412.3257,188.5166,411.0917,182.996,416.6123,181.7619,406.87,180.3169" style="stroke:#181818;stroke-width:1.0;"/><text fill="#000000" font-family="sans-serif" font-size="13" lengthAdjust="spacing" textLength="94.9038" x="474.64" y="614.3638">Conveyor Free</text><text fill="#000000" font-family="sans-serif" font-size="13" lengthAdjust="spacing" textLength="94.5483" x="474.8177" y="629.4966">Reset to X = 0</text></g><!--SRC=[XP7HIyCm4CRVxw-uHnKcQny5VTce3AgJLdJWH4AzTc4rqVGcxB_thf6kECMd9FVzlk-I2rjk2U-2Ru9vmv8-TkGgmdlJRN5ER6nBhrYoOSAvDGe1F9qzusHoXQifNk32MRQcZGn8IPKRppuaIoVwzKD-7eylCUOIbxSm07rECkRI0vTb028gysYaZMio7qfodG_Yq1BMibLhh2xS-uxXYDM0d6hkyyKvWgLDyhkXiCtc3qSAS8ZhNv0A4s_VDv9P1QhOUhTseuSDrJnEOTJYPqel_HTJn1WGe_hdr9gzPiW00ySZdgJOKNKAtw9oC-y-QUz35eXc6wgsOechhGSHROSA01pZm-SFi6fhLr17ZEnn9HURVW40]--></g></svg>