<svg xmlns="http://www.w3.org/2000/svg" xmlns:xlink="http://www.w3.org/1999/xlink" contentStyleType="text/css" height="1119px" preserveAspectRatio="none" style="width:1642px;height:1119px;background:#FFFFFF;" version="1.1" viewBox="0 0 1642 1119" width="1642px" zoomAndPan="magnify"><defs/><g><text fill="#000000" font-family="sans-serif" font-size="14" font-weight="bold" lengthAdjust="spacing" textLength="319.4434" x="660.7188" y="27.9951">Total System Control Sequence Diagram</text><line style="stroke:#181818;stroke-width:0.5;stroke-dasharray:5.0,5.0;" x1="23" x2="23" y1="118.5938" y2="1038.5781"/><line style="stroke:#181818;stroke-width:0.5;stroke-dasharray:5.0,5.0;" x1="79.9102" x2="79.9102" y1="118.5938" y2="1038.5781"/><line style="stroke:#181818;stroke-width:0.5;stroke-dasharray:5.0,5.0;" x1="210.0073" x2="210.0073" y1="118.5938" y2="1038.5781"/><line style="stroke:#181818;stroke-width:0.5;stroke-dasharray:5.0,5.0;" x1="357.4233" x2="357.4233" y1="118.5938" y2="1038.5781"/><line style="stroke:#181818;stroke-width:0.5;stroke-dasharray:5.0,5.0;" x1="438.3188" x2="438.3188" y1="118.5938" y2="1038.5781"/><line style="stroke:#181818;stroke-width:0.5;stroke-dasharray:5.0,5.0;" x1="638.5493" x2="638.5493" y1="118.5938" y2="1038.5781"/><line style="stroke:#181818;stroke-width:0.5;stroke-dasharray:5.0,5.0;" x1="867.8643" x2="867.8643" y1="118.5938" y2="1038.5781"/><line style="stroke:#181818;stroke-width:0.5;stroke-dasharray:5.0,5.0;" x1="949.2266" x2="949.2266" y1="118.5938" y2="1038.5781"/><line style="stroke:#181818;stroke-width:0.5;stroke-dasharray:5.0,5.0;" x1="1038.749" x2="1038.749" y1="118.5938" y2="1038.5781"/><line style="stroke:#181818;stroke-width:0.5;stroke-dasharray:5.0,5.0;" x1="1169.2393" x2="1169.2393" y1="118.5938" y2="1038.5781"/><line style="stroke:#181818;stroke-width:0.5;stroke-dasharray:5.0,5.0;" x1="1281.8711" x2="1281.8711" y1="118.5938" y2="1038.5781"/><line style="stroke:#181818;stroke-width:0.5;stroke-dasharray:5.0,5.0;" x1="1417.6992" x2="1417.6992" y1="118.5938" y2="1038.5781"/><line style="stroke:#181818;stroke-width:0.5;stroke-dasharray:5.0,5.0;" x1="1566.7764" x2="1566.7764" y1="118.5938" y2="1038.5781"/><text fill="#000000" font-family="sans-serif" font-size="14" lengthAdjust="spacing" textLength="31.9102" x="5" y="115.292">User</text><ellipse cx="23.9551" cy="50.7969" fill="#E2E2F0" rx="8" ry="8" style="stroke:#181818;stroke-width:0.5;"/><path d="M23.9551,58.7969 L23.9551,85.7969 M10.9551,66.7969 L36.9551,66.7969 M23.9551,85.7969 L10.9551,100.7969 M23.9551,85.7969 L36.9551,100.7969 " fill="none" style="stroke:#181818;stroke-width:0.5;"/><text fill="#000000" font-family="sans-serif" font-size="14" lengthAdjust="spacing" textLength="31.9102" x="5" y="1050.5732">User</text><ellipse cx="23.9551" cy="1062.375" fill="#E2E2F0" rx="8" ry="8" style="stroke:#181818;stroke-width:0.5;"/><path d="M23.9551,1070.375 L23.9551,1097.375 M10.9551,1078.375 L36.9551,1078.375 M23.9551,1097.375 L10.9551,1112.375 M23.9551,1097.375 L36.9551,1112.375 " fill="none" style="stroke:#181818;stroke-width:0.5;"/><rect fill="#E2E2F0" height="30.2969" rx="2.5" ry="2.5" style="stroke:#181818;stroke-width:0.5;" width="54.6738" x="52.9102" y="87.2969"/><text fill="#000000" font-family="sans-serif" font-size="14" lengthAdjust="spacing" textLength="40.6738" x="59.9102" y="107.292">EStop</text><rect fill="#E2E2F0" height="30.2969" rx="2.5" ry="2.5" style="stroke:#181818;stroke-width:0.5;" width="54.6738" x="52.9102" y="1037.5781"/><text fill="#000000" font-family="sans-serif" font-size="14" lengthAdjust="spacing" textLength="40.6738" x="59.9102" y="1057.5732">EStop</text><rect fill="#E2E2F0" height="30.2969" rx="2.5" ry="2.5" style="stroke:#181818;stroke-width:0.5;" width="126.9229" x="147.0073" y="87.2969"/><text fill="#000000" font-family="sans-serif" font-size="14" lengthAdjust="spacing" textLength="112.9229" x="154.0073" y="107.292">StartStopButton</text><rect fill="#E2E2F0" height="30.2969" rx="2.5" ry="2.5" style="stroke:#181818;stroke-width:0.5;" width="126.9229" x="147.0073" y="1037.5781"/><text fill="#000000" font-family="sans-serif" font-size="14" lengthAdjust="spacing" textLength="112.9229" x="154.0073" y="1057.5732">StartStopButton</text><rect fill="#E2E2F0" height="30.2969" rx="2.5" ry="2.5" style="stroke:#181818;stroke-width:0.5;" width="70.8955" x="322.4233" y="87.2969"/><text fill="#000000" font-family="sans-serif" font-size="14" lengthAdjust="spacing" textLength="56.8955" x="329.4233" y="107.292">Sensor1</text><rect fill="#E2E2F0" height="30.2969" rx="2.5" ry="2.5" style="stroke:#181818;stroke-width:0.5;" width="70.8955" x="322.4233" y="1037.5781"/><text fill="#000000" font-family="sans-serif" font-size="14" lengthAdjust="spacing" textLength="56.8955" x="329.4233" y="1057.5732">Sensor1</text><rect fill="#E2E2F0" height="30.2969" rx="2.5" ry="2.5" style="stroke:#181818;stroke-width:0.5;" width="70.8955" x="403.3188" y="87.2969"/><text fill="#000000" font-family="sans-serif" font-size="14" lengthAdjust="spacing" textLength="56.8955" x="410.3188" y="107.292">Sensor2</text><rect fill="#E2E2F0" height="30.2969" rx="2.5" ry="2.5" style="stroke:#181818;stroke-width:0.5;" width="70.8955" x="403.3188" y="1037.5781"/><text fill="#000000" font-family="sans-serif" font-size="14" lengthAdjust="spacing" textLength="56.8955" x="410.3188" y="1057.5732">Sensor2</text><rect fill="#E2E2F0" height="30.2969" rx="2.5" ry="2.5" style="stroke:#181818;stroke-width:0.5;" width="63.3623" x="607.5493" y="87.2969"/><text fill="#000000" font-family="sans-serif" font-size="14" lengthAdjust="spacing" textLength="49.3623" x="614.5493" y="107.292">Motor1</text><rect fill="#E2E2F0" height="30.2969" rx="2.5" ry="2.5" style="stroke:#181818;stroke-width:0.5;" width="63.3623" x="607.5493" y="1037.5781"/><text fill="#000000" font-family="sans-serif" font-size="14" lengthAdjust="spacing" textLength="49.3623" x="614.5493" y="1057.5732">Motor1</text><rect fill="#E2E2F0" height="30.2969" rx="2.5" ry="2.5" style="stroke:#181818;stroke-width:0.5;" width="63.3623" x="836.8643" y="87.2969"/><text fill="#000000" font-family="sans-serif" font-size="14" lengthAdjust="spacing" textLength="49.3623" x="843.8643" y="107.292">Motor2</text><rect fill="#E2E2F0" height="30.2969" rx="2.5" ry="2.5" style="stroke:#181818;stroke-width:0.5;" width="63.3623" x="836.8643" y="1037.5781"/><text fill="#000000" font-family="sans-serif" font-size="14" lengthAdjust="spacing" textLength="49.3623" x="843.8643" y="1057.5732">Motor2</text><rect fill="#E2E2F0" height="30.2969" rx="2.5" ry="2.5" style="stroke:#181818;stroke-width:0.5;" width="79.5225" x="910.2266" y="87.2969"/><text fill="#000000" font-family="sans-serif" font-size="14" lengthAdjust="spacing" textLength="65.5225" x="917.2266" y="107.292">CounterA</text><rect fill="#E2E2F0" height="30.2969" rx="2.5" ry="2.5" style="stroke:#181818;stroke-width:0.5;" width="79.5225" x="910.2266" y="1037.5781"/><text fill="#000000" font-family="sans-serif" font-size="14" lengthAdjust="spacing" textLength="65.5225" x="917.2266" y="1057.5732">CounterA</text><rect fill="#E2E2F0" height="30.2969" rx="2.5" ry="2.5" style="stroke:#181818;stroke-width:0.5;" width="79.5498" x="999.749" y="87.2969"/><text fill="#000000" font-family="sans-serif" font-size="14" lengthAdjust="spacing" textLength="65.5498" x="1006.749" y="107.292">CounterB</text><rect fill="#E2E2F0" height="30.2969" rx="2.5" ry="2.5" style="stroke:#181818;stroke-width:0.5;" width="79.5498" x="999.749" y="1037.5781"/><text fill="#000000" font-family="sans-serif" font-size="14" lengthAdjust="spacing" textLength="65.5498" x="1006.749" y="1057.5732">CounterB</text><rect fill="#E2E2F0" height="30.2969" rx="2.5" ry="2.5" style="stroke:#181818;stroke-width:0.5;" width="100.6318" x="1119.2393" y="87.2969"/><text fill="#000000" font-family="sans-serif" font-size="14" lengthAdjust="spacing" textLength="86.6318" x="1126.2393" y="107.292">ResetButton</text><rect fill="#E2E2F0" height="30.2969" rx="2.5" ry="2.5" style="stroke:#181818;stroke-width:0.5;" width="100.6318" x="1119.2393" y="1037.5781"/><text fill="#000000" font-family="sans-serif" font-size="14" lengthAdjust="spacing" textLength="86.6318" x="1126.2393" y="1057.5732">ResetButton</text><rect fill="#E2E2F0" height="30.2969" rx="2.5" ry="2.5" style="stroke:#181818;stroke-width:0.5;" width="105.0547" x="1229.8711" y="87.2969"/><text fill="#000000" font-family="sans-serif" font-size="14" lengthAdjust="spacing" textLength="91.0547" x="1236.8711" y="107.292">CheckSensor</text><rect fill="#E2E2F0" height="30.2969" rx="2.5" ry="2.5" style="stroke:#181818;stroke-width:0.5;" width="105.0547" x="1229.8711" y="1037.5781"/><text fill="#000000" font-family="sans-serif" font-size="14" lengthAdjust="spacing" textLength="91.0547" x="1236.8711" y="1057.5732">CheckSensor</text><rect fill="#E2E2F0" height="30.2969" rx="2.5" ry="2.5" style="stroke:#181818;stroke-width:0.5;" width="139.0771" x="1348.6992" y="87.2969"/><text fill="#000000" font-family="sans-serif" font-size="14" lengthAdjust="spacing" textLength="125.0771" x="1355.6992" y="107.292">IncreaseCounterA</text><rect fill="#E2E2F0" height="30.2969" rx="2.5" ry="2.5" style="stroke:#181818;stroke-width:0.5;" width="139.0771" x="1348.6992" y="1037.5781"/><text fill="#000000" font-family="sans-serif" font-size="14" lengthAdjust="spacing" textLength="125.0771" x="1355.6992" y="1057.5732">IncreaseCounterA</text><rect fill="#E2E2F0" height="30.2969" rx="2.5" ry="2.5" style="stroke:#181818;stroke-width:0.5;" width="139.1045" x="1497.7764" y="87.2969"/><text fill="#000000" font-family="sans-serif" font-size="14" lengthAdjust="spacing" textLength="125.1045" x="1504.7764" y="107.292">IncreaseCounterB</text><rect fill="#E2E2F0" height="30.2969" rx="2.5" ry="2.5" style="stroke:#181818;stroke-width:0.5;" width="139.1045" x="1497.7764" y="1037.5781"/><text fill="#000000" font-family="sans-serif" font-size="14" lengthAdjust="spacing" textLength="125.1045" x="1504.7764" y="1057.5732">IncreaseCounterB</text><polygon fill="#181818" points="198.4688,145.7266,208.4688,149.7266,198.4688,153.7266,202.4688,149.7266" style="stroke:#181818;stroke-width:1.0;"/><line style="stroke:#181818;stroke-width:1.0;" x1="23.9551" x2="204.4688" y1="149.7266" y2="149.7266"/><text fill="#000000" font-family="sans-serif" font-size="13" lengthAdjust="spacing" textLength="70.6177" x="30.9551" y="144.6606">Press Start</text><polygon fill="#181818" points="91.2471,174.8594,81.2471,178.8594,91.2471,182.8594,87.2471,178.8594" style="stroke:#181818;stroke-width:1.0;"/><line style="stroke:#181818;stroke-width:1.0;" x1="85.2471" x2="209.4688" y1="178.8594" y2="178.8594"/><text fill="#000000" font-family="sans-serif" font-size="13" lengthAdjust="spacing" textLength="86.582" x="97.2471" y="173.7935">Check E-Stop</text><polygon fill="#181818" points="198.4688,203.9922,208.4688,207.9922,198.4688,211.9922,202.4688,207.9922" style="stroke:#181818;stroke-width:1.0;"/><line style="stroke:#181818;stroke-width:1.0;stroke-dasharray:2.0,2.0;" x1="80.2471" x2="204.4688" y1="207.9922" y2="207.9922"/><text fill="#000000" font-family="sans-serif" font-size="13" lengthAdjust="spacing" textLength="106.2217" x="87.2471" y="202.9263">E-Stop Released</text><polygon fill="#181818" points="627.2305,233.125,637.2305,237.125,627.2305,241.125,631.2305,237.125" style="stroke:#181818;stroke-width:1.0;"/><line style="stroke:#181818;stroke-width:1.0;" x1="210.4688" x2="633.2305" y1="237.125" y2="237.125"/><text fill="#000000" font-family="sans-serif" font-size="13" lengthAdjust="spacing" textLength="107.9546" x="217.4688" y="232.0591">Turn ON Motor 1</text><polygon fill="#181818" points="368.8711,262.2578,358.8711,266.2578,368.8711,270.2578,364.8711,266.2578" style="stroke:#181818;stroke-width:1.0;"/><line style="stroke:#181818;stroke-width:1.0;" x1="362.8711" x2="638.2305" y1="266.2578" y2="266.2578"/><text fill="#000000" font-family="sans-serif" font-size="13" lengthAdjust="spacing" textLength="213.7637" x="374.8711" y="261.1919">Wait for Sensor 1 (Detect A or B)</text><polygon fill="#181818" points="627.2305,291.3906,637.2305,295.3906,627.2305,299.3906,631.2305,295.3906" style="stroke:#181818;stroke-width:1.0;"/><line style="stroke:#181818;stroke-width:1.0;" x1="357.8711" x2="633.2305" y1="295.3906" y2="295.3906"/><text fill="#000000" font-family="sans-serif" font-size="13" lengthAdjust="spacing" textLength="127.8799" x="364.8711" y="290.3247">No Object Detected</text><polygon fill="#181818" points="368.8711,320.5234,358.8711,324.5234,368.8711,328.5234,364.8711,324.5234" style="stroke:#181818;stroke-width:1.0;"/><line style="stroke:#181818;stroke-width:1.0;stroke-dasharray:2.0,2.0;" x1="362.8711" x2="638.2305" y1="324.5234" y2="324.5234"/><text fill="#000000" font-family="sans-serif" font-size="13" lengthAdjust="spacing" textLength="112.2202" x="374.8711" y="319.4575">Continue Waiting</text><polygon fill="#181818" points="627.2305,349.6563,637.2305,353.6563,627.2305,357.6563,631.2305,353.6563" style="stroke:#181818;stroke-width:1.0;"/><line style="stroke:#181818;stroke-width:1.0;" x1="357.8711" x2="633.2305" y1="353.6563" y2="353.6563"/><text fill="#000000" font-family="sans-serif" font-size="13" lengthAdjust="spacing" textLength="159.7197" x="364.8711" y="348.5903">Object Detected (A or B)</text><polygon fill="#181818" points="1270.3984,378.7891,1280.3984,382.7891,1270.3984,386.7891,1274.3984,382.7891" style="stroke:#181818;stroke-width:1.0;"/><line style="stroke:#181818;stroke-width:1.0;" x1="357.8711" x2="1276.3984" y1="382.7891" y2="382.7891"/><text fill="#000000" font-family="sans-serif" font-size="13" lengthAdjust="spacing" textLength="95.8179" x="364.8711" y="377.7231">Check if A or B</text><polygon fill="#181818" points="1406.2378,407.9219,1416.2378,411.9219,1406.2378,415.9219,1410.2378,411.9219" style="stroke:#181818;stroke-width:1.0;"/><line style="stroke:#181818;stroke-width:1.0;" x1="1282.3984" x2="1412.2378" y1="411.9219" y2="411.9219"/><text fill="#000000" font-family="sans-serif" font-size="13" lengthAdjust="spacing" textLength="111.8394" x="1289.3984" y="406.856">Sensor Detects A</text><polygon fill="#181818" points="1555.3286,437.0547,1565.3286,441.0547,1555.3286,445.0547,1559.3286,441.0547" style="stroke:#181818;stroke-width:1.0;"/><line style="stroke:#181818;stroke-width:1.0;" x1="1282.3984" x2="1561.3286" y1="441.0547" y2="441.0547"/><text fill="#000000" font-family="sans-serif" font-size="13" lengthAdjust="spacing" textLength="111.8647" x="1289.3984" y="435.9888">Sensor Detects B</text><polygon fill="#181818" points="960.9878,466.1875,950.9878,470.1875,960.9878,474.1875,956.9878,470.1875" style="stroke:#181818;stroke-width:1.0;"/><line style="stroke:#181818;stroke-width:1.0;" x1="954.9878" x2="1417.2378" y1="470.1875" y2="470.1875"/><text fill="#000000" font-family="sans-serif" font-size="13" lengthAdjust="spacing" textLength="135.6685" x="966.9878" y="465.1216">Increment Counter A</text><polygon fill="#181818" points="1050.5239,495.3203,1040.5239,499.3203,1050.5239,503.3203,1046.5239,499.3203" style="stroke:#181818;stroke-width:1.0;"/><line style="stroke:#181818;stroke-width:1.0;" x1="1044.5239" x2="1566.3286" y1="499.3203" y2="499.3203"/><text fill="#000000" font-family="sans-serif" font-size="13" lengthAdjust="spacing" textLength="135.6938" x="1056.5239" y="494.2544">Increment Counter B</text><polygon fill="#181818" points="879.5454,524.4531,869.5454,528.4531,879.5454,532.4531,875.5454,528.4531" style="stroke:#181818;stroke-width:1.0;"/><line style="stroke:#181818;stroke-width:1.0;" x1="873.5454" x2="1417.2378" y1="528.4531" y2="528.4531"/><text fill="#000000" font-family="sans-serif" font-size="13" lengthAdjust="spacing" textLength="146.3198" x="885.5454" y="523.3872">Turn ON Motor 2 Right</text><polygon fill="#181818" points="879.5454,553.5859,869.5454,557.5859,879.5454,561.5859,875.5454,557.5859" style="stroke:#181818;stroke-width:1.0;"/><line style="stroke:#181818;stroke-width:1.0;" x1="873.5454" x2="1566.3286" y1="557.5859" y2="557.5859"/><text fill="#000000" font-family="sans-serif" font-size="13" lengthAdjust="spacing" textLength="137.0015" x="885.5454" y="552.52">Turn ON Motor 2 Left</text><polygon fill="#181818" points="650.2305,582.7188,640.2305,586.7188,650.2305,590.7188,646.2305,586.7188" style="stroke:#181818;stroke-width:1.0;"/><line style="stroke:#181818;stroke-width:1.0;" x1="644.2305" x2="867.5454" y1="586.7188" y2="586.7188"/><text fill="#000000" font-family="sans-serif" font-size="13" lengthAdjust="spacing" textLength="205.3149" x="656.2305" y="581.6528">Turn of Motor 1 after 4 seconds</text><polygon fill="#181818" points="449.7666,611.8516,439.7666,615.8516,449.7666,619.8516,445.7666,615.8516" style="stroke:#181818;stroke-width:1.0;"/><line style="stroke:#181818;stroke-width:1.0;" x1="443.7666" x2="867.5454" y1="615.8516" y2="615.8516"/><text fill="#000000" font-family="sans-serif" font-size="13" lengthAdjust="spacing" textLength="282.3945" x="455.7666" y="610.7856">Wait for Sensor 2 (Detect Conveyor Empty)</text><polygon fill="#181818" points="856.5454,640.9844,866.5454,644.9844,856.5454,648.9844,860.5454,644.9844" style="stroke:#181818;stroke-width:1.0;"/><line style="stroke:#181818;stroke-width:1.0;" x1="438.7666" x2="862.5454" y1="644.9844" y2="644.9844"/><text fill="#000000" font-family="sans-serif" font-size="13" lengthAdjust="spacing" textLength="229.4551" x="445.7666" y="639.9185">Conveyor Empty, Turn OFF Motor 2</text><polygon fill="#181818" points="368.8711,670.1172,358.8711,674.1172,368.8711,678.1172,364.8711,674.1172" style="stroke:#181818;stroke-width:1.0;"/><line style="stroke:#181818;stroke-width:1.0;" x1="362.8711" x2="638.2305" y1="674.1172" y2="674.1172"/><text fill="#000000" font-family="sans-serif" font-size="13" lengthAdjust="spacing" textLength="257.3594" x="374.8711" y="669.0513">Continue Running, Wait for Next Object</text><polygon fill="#181818" points="1157.5552,699.25,1167.5552,703.25,1157.5552,707.25,1161.5552,703.25" style="stroke:#181818;stroke-width:1.0;"/><line style="stroke:#181818;stroke-width:1.0;" x1="23.9551" x2="1163.5552" y1="703.25" y2="703.25"/><text fill="#000000" font-family="sans-serif" font-size="13" lengthAdjust="spacing" textLength="75.7593" x="30.9551" y="698.1841">Press Reset</text><polygon fill="#181818" points="960.9878,728.3828,950.9878,732.3828,960.9878,736.3828,956.9878,732.3828" style="stroke:#181818;stroke-width:1.0;"/><line style="stroke:#181818;stroke-width:1.0;" x1="954.9878" x2="1168.5552" y1="732.3828" y2="732.3828"/><text fill="#000000" font-family="sans-serif" font-size="13" lengthAdjust="spacing" textLength="106.0059" x="966.9878" y="727.3169">Reset Counter A</text><polygon fill="#181818" points="1050.5239,757.5156,1040.5239,761.5156,1050.5239,765.5156,1046.5239,761.5156" style="stroke:#181818;stroke-width:1.0;"/><line style="stroke:#181818;stroke-width:1.0;" x1="1044.5239" x2="1168.5552" y1="761.5156" y2="761.5156"/><text fill="#000000" font-family="sans-serif" font-size="13" lengthAdjust="spacing" textLength="106.0313" x="1056.5239" y="756.4497">Reset Counter B</text><polygon fill="#181818" points="198.4688,786.6484,208.4688,790.6484,198.4688,794.6484,202.4688,790.6484" style="stroke:#181818;stroke-width:1.0;"/><line style="stroke:#181818;stroke-width:1.0;" x1="23.9551" x2="204.4688" y1="790.6484" y2="790.6484"/><text fill="#000000" font-family="sans-serif" font-size="13" lengthAdjust="spacing" textLength="68.415" x="30.9551" y="785.5825">Press Stop</text><line style="stroke:#181818;stroke-width:1.0;" x1="210.4688" x2="252.4688" y1="819.7813" y2="819.7813"/><line style="stroke:#181818;stroke-width:1.0;" x1="252.4688" x2="252.4688" y1="819.7813" y2="832.7813"/><line style="stroke:#181818;stroke-width:1.0;" x1="211.4688" x2="252.4688" y1="832.7813" y2="832.7813"/><polygon fill="#181818" points="221.4688,828.7813,211.4688,832.7813,221.4688,836.7813,217.4688,832.7813" style="stroke:#181818;stroke-width:1.0;"/><text fill="#000000" font-family="sans-serif" font-size="13" lengthAdjust="spacing" textLength="133.4023" x="217.4688" y="814.7153">Switch to Stop Mode</text><polygon fill="#181818" points="627.2305,857.9141,637.2305,861.9141,627.2305,865.9141,631.2305,861.9141" style="stroke:#181818;stroke-width:1.0;"/><line style="stroke:#181818;stroke-width:1.0;" x1="210.4688" x2="633.2305" y1="861.9141" y2="861.9141"/><text fill="#000000" font-family="sans-serif" font-size="13" lengthAdjust="spacing" textLength="113.1851" x="217.4688" y="856.8481">Turn OFF Motor 1</text><polygon fill="#181818" points="856.5454,887.0469,866.5454,891.0469,856.5454,895.0469,860.5454,891.0469" style="stroke:#181818;stroke-width:1.0;"/><line style="stroke:#181818;stroke-width:1.0;" x1="210.4688" x2="862.5454" y1="891.0469" y2="891.0469"/><text fill="#000000" font-family="sans-serif" font-size="13" lengthAdjust="spacing" textLength="113.1851" x="217.4688" y="885.981">Turn OFF Motor 2</text><polygon fill="#181818" points="198.4688,916.1797,208.4688,920.1797,198.4688,924.1797,202.4688,920.1797" style="stroke:#181818;stroke-width:1.0;"/><line style="stroke:#181818;stroke-width:1.0;" x1="80.2471" x2="204.4688" y1="920.1797" y2="920.1797"/><text fill="#000000" font-family="sans-serif" font-size="13" lengthAdjust="spacing" textLength="97.5698" x="87.2471" y="915.1138">E-Stop Pressed</text><line style="stroke:#181818;stroke-width:1.0;" x1="210.4688" x2="252.4688" y1="949.3125" y2="949.3125"/><line style="stroke:#181818;stroke-width:1.0;" x1="252.4688" x2="252.4688" y1="949.3125" y2="962.3125"/><line style="stroke:#181818;stroke-width:1.0;" x1="211.4688" x2="252.4688" y1="962.3125" y2="962.3125"/><polygon fill="#181818" points="221.4688,958.3125,211.4688,962.3125,221.4688,966.3125,217.4688,962.3125" style="stroke:#181818;stroke-width:1.0;"/><text fill="#000000" font-family="sans-serif" font-size="13" lengthAdjust="spacing" textLength="133.4023" x="217.4688" y="944.2466">Switch to Stop Mode</text><polygon fill="#181818" points="627.2305,987.4453,637.2305,991.4453,627.2305,995.4453,631.2305,991.4453" style="stroke:#181818;stroke-width:1.0;"/><line style="stroke:#181818;stroke-width:1.0;" x1="210.4688" x2="633.2305" y1="991.4453" y2="991.4453"/><text fill="#000000" font-family="sans-serif" font-size="13" lengthAdjust="spacing" textLength="113.1851" x="217.4688" y="986.3794">Turn OFF Motor 1</text><polygon fill="#181818" points="856.5454,1016.5781,866.5454,1020.5781,856.5454,1024.5781,860.5454,1020.5781" style="stroke:#181818;stroke-width:1.0;"/><line style="stroke:#181818;stroke-width:1.0;" x1="210.4688" x2="862.5454" y1="1020.5781" y2="1020.5781"/><text fill="#000000" font-family="sans-serif" font-size="13" lengthAdjust="spacing" textLength="113.1851" x="217.4688" y="1015.5122">Turn OFF Motor 2</text><!--SRC=[pLHDRzim3BthL_3O0SqXnauz38ZJ51ZGfaFIOMVDeHEjYPH9zBRy-z6I75knqlMuenuVoSSlaQ8zmeiXkOVroH4UO6uqMSDF_DcWhX3kbTnQUH12LcGiV7LenL5QKfKwIasmM9Cv9iYQ-D6YPKDaT6f3xOoTPh0YmPuCNT8ybBBcfj64TfO3omHSeKEAUaHR0qm-NGg5E_XYqRc0YqihE_XQcJRVOVKAYualFO2JRBn0uUnxb0ut8XSqbChabyPgU5u60AOY6jh0eMlC-IOLGStc0C4KRkwHi2AO0J_B3vmYaeUXbmQUl_zeQO7DKhheIVXs-aetwFCelSr7kmW5Drtk0TctA8hi6gRgg5A8ePdPdtLbsmvr0sMNQ0n97Cp-uLAENJZDA6whhC_XpGVibuRJZEBsBcNMvKgQiAwZiHQmKjiTPTDSTNd4caIqZZR6rDt6WAnRGH_1OMNqne4OECKho-nGSTuX7lylF36qE1pfrCspIBIbdDkezU6X4okoUtjUh5MZDI_MRQzYYNyehbH_ceDxFP-bnyJGaaxJMmQJp3FB4RDypu_0XvwvtJ5__LjHjGCoteURii5t7FsvVTEhv69Cvbx7p-UDlySNmFV-_wd_2m00]--></g></svg>