<svg xmlns="http://www.w3.org/2000/svg" xmlns:xlink="http://www.w3.org/1999/xlink" contentStyleType="text/css" height="577px" preserveAspectRatio="none" style="width:248px;height:577px;background:#FFFFFF;" version="1.1" viewBox="0 0 248 577" width="248px" zoomAndPan="magnify"><defs/><g><text fill="#000000" font-family="sans-serif" font-size="14" font-weight="bold" lengthAdjust="spacing" textLength="175.6289" x="29.5483" y="22.9951">Motor Control Process</text><ellipse cx="57.77" cy="53.2969" fill="#222222" rx="10" ry="10" style="stroke:#222222;stroke-width:1.0;"/><g id="Idle"><rect fill="#F1F1F1" height="50" rx="12.5" ry="12.5" style="stroke:#181818;stroke-width:0.5;" width="50" x="32.77" y="140.2969"/><line style="stroke:#181818;stroke-width:0.5;" x1="32.77" x2="82.77" y1="166.5938" y2="166.5938"/><text fill="#000000" font-family="sans-serif" font-size="14" lengthAdjust="spacing" textLength="25.5186" x="45.0107" y="158.292">Idle</text></g><g id="Select"><rect fill="#F1F1F1" height="50" rx="12.5" ry="12.5" style="stroke:#181818;stroke-width:0.5;" width="63.1895" x="26.18" y="267.2969"/><line style="stroke:#181818;stroke-width:0.5;" x1="26.18" x2="89.3695" y1="293.5938" y2="293.5938"/><text fill="#000000" font-family="sans-serif" font-size="14" lengthAdjust="spacing" textLength="43.1895" x="36.18" y="285.292">Select</text></g><g id="Trapezoidal"><rect fill="#F1F1F1" height="50" rx="12.5" ry="12.5" style="stroke:#181818;stroke-width:0.5;" width="101.5459" x="7" y="394.2969"/><line style="stroke:#181818;stroke-width:0.5;" x1="7" x2="108.5459" y1="420.5938" y2="420.5938"/><text fill="#000000" font-family="sans-serif" font-size="14" lengthAdjust="spacing" textLength="81.5459" x="17" y="412.292">Trapezoidal</text></g><g id="ScalOutput"><rect fill="#F1F1F1" height="50" rx="12.5" ry="12.5" style="stroke:#181818;stroke-width:0.5;" width="97.6836" x="8.93" y="521.2969"/><line style="stroke:#181818;stroke-width:0.5;" x1="8.93" x2="106.6136" y1="547.5938" y2="547.5938"/><text fill="#000000" font-family="sans-serif" font-size="14" lengthAdjust="spacing" textLength="77.6836" x="18.93" y="539.292">ScalOutput</text></g><!--link *start* to Idle--><g id="link_*start*_Idle"><path d="M57.77,63.6769 C57.77,80.4069 57.77,109.8869 57.77,133.9269 " fill="none" id="*start*-to-Idle" style="stroke:#181818;stroke-width:1.0;"/><polygon fill="#181818" points="57.77,139.9269,61.77,130.9269,57.77,134.9269,53.77,130.9269,57.77,139.9269" style="stroke:#181818;stroke-width:1.0;"/><text fill="#000000" font-family="sans-serif" font-size="13" lengthAdjust="spacing" textLength="115.2671" x="58.77" y="106.3638">System Initialized</text></g><!--link Idle to Select--><g id="link_Idle_Select"><path d="M57.77,190.6969 C57.77,212.7169 57.77,238.9569 57.77,260.9569 " fill="none" id="Idle-to-Select" style="stroke:#181818;stroke-width:1.0;"/><polygon fill="#181818" points="57.77,266.9569,61.77,257.9569,57.77,261.9569,53.77,257.9569,57.77,266.9569" style="stroke:#181818;stroke-width:1.0;"/><text fill="#000000" font-family="sans-serif" font-size="13" lengthAdjust="spacing" textLength="84.9888" x="58.77" y="233.3638">Select Speed</text></g><!--link Select to Trapezoidal--><g id="link_Select_Trapezoidal"><path d="M57.77,317.6969 C57.77,339.7169 57.77,365.9569 57.77,387.9569 " fill="none" id="Select-to-Trapezoidal" style="stroke:#181818;stroke-width:1.0;"/><polygon fill="#181818" points="57.77,393.9569,61.77,384.9569,57.77,388.9569,53.77,384.9569,57.77,393.9569" style="stroke:#181818;stroke-width:1.0;"/><text fill="#000000" font-family="sans-serif" font-size="13" lengthAdjust="spacing" textLength="181.9556" x="58.77" y="360.3638">When rTrig is active (Timer)</text></g><!--link Trapezoidal to ScalOutput--><g id="link_Trapezoidal_ScalOutput"><path d="M57.77,444.6969 C57.77,466.7169 57.77,492.9569 57.77,514.9569 " fill="none" id="Trapezoidal-to-ScalOutput" style="stroke:#181818;stroke-width:1.0;"/><polygon fill="#181818" points="57.77,520.9569,61.77,511.9569,57.77,515.9569,53.77,511.9569,57.77,520.9569" style="stroke:#181818;stroke-width:1.0;"/><text fill="#000000" font-family="sans-serif" font-size="13" lengthAdjust="spacing" textLength="159.5928" x="58.77" y="487.3638">Send speed to be scaled</text></g><!--SRC=[JSqn2y8m40NWFR_YZIhq3pYuE7KGXHOSn24cXnwakP9S1VlhJLe7jtkyZtVA6WWdKKauIjGa0PSaZd8svhQxesaEQ7qnUtIVh3IWZQni0y_aZLcgQZeAvBIgzUX6glqlLT4dEz8ix6qexFgYYDGdVe8ph5D-4pOz3vIsnlpRPTtPS9vqdDOFqIFNVQZWGSYb9Vy5]--></g></svg>