<svg xmlns="http://www.w3.org/2000/svg" xmlns:xlink="http://www.w3.org/1999/xlink" contentStyleType="text/css" height="988px" preserveAspectRatio="none" style="width:799px;height:988px;background:#FFFFFF;" version="1.1" viewBox="0 0 799 988" width="799px" zoomAndPan="magnify"><defs/><g><text fill="#000000" font-family="sans-serif" font-size="14" font-weight="bold" lengthAdjust="spacing" textLength="232.1621" x="276.7148" y="22.9951">Total System Control Process</text><ellipse cx="315" cy="69.2969" fill="#222222" rx="10" ry="10" style="stroke:#222222;stroke-width:1.0;"/><g id="Idle"><rect fill="#F1F1F1" height="50" rx="12.5" ry="12.5" style="stroke:#181818;stroke-width:0.5;" width="50" x="368" y="171.2969"/><line style="stroke:#181818;stroke-width:0.5;" x1="368" x2="418" y1="197.5938" y2="197.5938"/><text fill="#000000" font-family="sans-serif" font-size="14" lengthAdjust="spacing" textLength="25.5186" x="380.2407" y="189.292">Idle</text></g><g id="EStopCheck"><rect fill="#F1F1F1" height="50" rx="12.5" ry="12.5" style="stroke:#181818;stroke-width:0.5;" width="103.7402" x="366.13" y="298.2969"/><line style="stroke:#181818;stroke-width:0.5;" x1="366.13" x2="469.8702" y1="324.5938" y2="324.5938"/><text fill="#000000" font-family="sans-serif" font-size="14" lengthAdjust="spacing" textLength="83.7402" x="376.13" y="316.292">EStopCheck</text></g><g id="Start"><rect fill="#F1F1F1" height="50" rx="12.5" ry="12.5" style="stroke:#181818;stroke-width:0.5;" width="54.2002" x="406.9" y="425.2969"/><line style="stroke:#181818;stroke-width:0.5;" x1="406.9" x2="461.1002" y1="451.5938" y2="451.5938"/><text fill="#000000" font-family="sans-serif" font-size="14" lengthAdjust="spacing" textLength="34.2002" x="416.9" y="443.292">Start</text></g><g id="Motor1Running"><rect fill="#F1F1F1" height="50" rx="12.5" ry="12.5" style="stroke:#181818;stroke-width:0.5;" width="127.3584" x="284.32" y="567.2969"/><line style="stroke:#181818;stroke-width:0.5;" x1="284.32" x2="411.6784" y1="593.5938" y2="593.5938"/><text fill="#000000" font-family="sans-serif" font-size="14" lengthAdjust="spacing" textLength="107.3584" x="294.32" y="585.292">Motor1Running</text></g><g id="CheckSensor"><rect fill="#F1F1F1" height="50" rx="12.5" ry="12.5" style="stroke:#181818;stroke-width:0.5;" width="111.0547" x="200.47" y="678.2969"/><line style="stroke:#181818;stroke-width:0.5;" x1="200.47" x2="311.5247" y1="704.5938" y2="704.5938"/><text fill="#000000" font-family="sans-serif" font-size="14" lengthAdjust="spacing" textLength="91.0547" x="210.47" y="696.292">CheckSensor</text></g><g id="IncreaseCounterA"><rect fill="#F1F1F1" height="50" rx="12.5" ry="12.5" style="stroke:#181818;stroke-width:0.5;" width="145.0771" x="88.46" y="805.2969"/><line style="stroke:#181818;stroke-width:0.5;" x1="88.46" x2="233.5371" y1="831.5938" y2="831.5938"/><text fill="#000000" font-family="sans-serif" font-size="14" lengthAdjust="spacing" textLength="125.0771" x="98.46" y="823.292">IncreaseCounterA</text></g><g id="IncreaseCounterB"><rect fill="#F1F1F1" height="50" rx="12.5" ry="12.5" style="stroke:#181818;stroke-width:0.5;" width="145.1045" x="283.45" y="805.2969"/><line style="stroke:#181818;stroke-width:0.5;" x1="283.45" x2="428.5545" y1="831.5938" y2="831.5938"/><text fill="#000000" font-family="sans-serif" font-size="14" lengthAdjust="spacing" textLength="125.1045" x="293.45" y="823.292">IncreaseCounterB</text></g><g id="Motor2Right"><rect fill="#F1F1F1" height="50" rx="12.5" ry="12.5" style="stroke:#181818;stroke-width:0.5;" width="106.2285" x="13.89" y="932.2969"/><line style="stroke:#181818;stroke-width:0.5;" x1="13.89" x2="120.1185" y1="958.5938" y2="958.5938"/><text fill="#000000" font-family="sans-serif" font-size="14" lengthAdjust="spacing" textLength="86.2285" x="23.89" y="950.292">Motor2Right</text></g><g id="Motor2Left"><rect fill="#F1F1F1" height="50" rx="12.5" ry="12.5" style="stroke:#181818;stroke-width:0.5;" width="96.1934" x="395.9" y="932.2969"/><line style="stroke:#181818;stroke-width:0.5;" x1="395.9" x2="492.0934" y1="958.5938" y2="958.5938"/><text fill="#000000" font-family="sans-serif" font-size="14" lengthAdjust="spacing" textLength="76.1934" x="405.9" y="950.292">Motor2Left</text></g><g id="ResetCheck"><rect fill="#F1F1F1" height="50" rx="12.5" ry="12.5" style="stroke:#181818;stroke-width:0.5;" width="102.8037" x="162.6" y="298.2969"/><line style="stroke:#181818;stroke-width:0.5;" x1="162.6" x2="265.4037" y1="324.5938" y2="324.5938"/><text fill="#000000" font-family="sans-serif" font-size="14" lengthAdjust="spacing" textLength="82.8037" x="172.6" y="316.292">ResetCheck</text></g><g id="CounterReset"><rect fill="#F1F1F1" height="50" rx="12.5" ry="12.5" style="stroke:#181818;stroke-width:0.5;" width="115.6826" x="108.16" y="425.2969"/><line style="stroke:#181818;stroke-width:0.5;" x1="108.16" x2="223.8426" y1="451.5938" y2="451.5938"/><text fill="#000000" font-family="sans-serif" font-size="14" lengthAdjust="spacing" textLength="95.6826" x="118.16" y="443.292">CounterReset</text></g><g id="Stop"><rect fill="#F1F1F1" height="50" rx="12.5" ry="12.5" style="stroke:#181818;stroke-width:0.5;" width="51.8281" x="446.09" y="44.2969"/><line style="stroke:#181818;stroke-width:0.5;" x1="446.09" x2="497.9181" y1="70.5938" y2="70.5938"/><text fill="#000000" font-family="sans-serif" font-size="14" lengthAdjust="spacing" textLength="31.8281" x="456.09" y="62.292">Stop</text></g><!--link *start* to Idle--><g id="link_*start*_Idle"><path d="M311.88,79.2369 C307.52,93.3569 301.29,121.2869 312,141.2969 C323.72,163.1969 343.1979,175.3408 362.3379,183.7608 " fill="none" id="*start*-to-Idle" style="stroke:#181818;stroke-width:1.0;"/><polygon fill="#181818" points="367.83,186.1769,361.2026,178.8914,363.2533,184.1635,357.9812,186.2142,367.83,186.1769" style="stroke:#181818;stroke-width:1.0;"/><text fill="#000000" font-family="sans-serif" font-size="13" lengthAdjust="spacing" textLength="115.2671" x="313" y="137.3638">System Initialized</text></g><!--link Idle to EStopCheck--><g id="link_Idle_EStopCheck"><path d="M386.29,221.6569 C383.53,235.5369 381.84,253.1269 386,268.2969 C388.85,278.7069 391.0836,284.0592 396.6736,292.9392 " fill="none" id="Idle-to-EStopCheck" style="stroke:#181818;stroke-width:1.0;"/><polygon fill="#181818" points="399.87,298.0169,398.4605,288.2694,397.2063,293.7855,391.6902,292.5313,399.87,298.0169" style="stroke:#181818;stroke-width:1.0;"/></g><!--link EStopCheck to Idle--><g id="link_EStopCheck_Idle"><path d="M413.13,297.9569 C408.73,275.9569 403.4557,249.6006 399.0557,227.5806 " fill="none" id="EStopCheck-to-Idle" style="stroke:#181818;stroke-width:1.0;"/><polygon fill="#181818" points="397.88,221.6969,395.721,231.3062,398.8597,226.5999,403.566,229.7386,397.88,221.6969" style="stroke:#181818;stroke-width:1.0;"/><text fill="#000000" font-family="sans-serif" font-size="13" lengthAdjust="spacing" textLength="97.5698" x="407" y="264.3638">E-Stop Pressed</text></g><!--link EStopCheck to Start--><g id="link_EStopCheck_Start"><path d="M414.44,348.7769 C413.07,362.5369 412.38,379.9769 415,395.2969 C416.71,405.2869 417.9619,410.2694 421.3919,419.4094 " fill="none" id="EStopCheck-to-Start" style="stroke:#181818;stroke-width:1.0;"/><polygon fill="#181818" points="423.5,425.0269,424.0828,415.1953,421.7433,420.3457,416.5929,418.0061,423.5,425.0269" style="stroke:#181818;stroke-width:1.0;"/><text fill="#000000" font-family="sans-serif" font-size="13" lengthAdjust="spacing" textLength="106.2217" x="416" y="391.3638">E-Stop Released</text></g><!--link Start to Motor1Running--><g id="link_Start_Motor1Running"><path d="M407.25,475.7369 C398.73,484.4769 389.77,494.7769 383,505.2969 C370.53,524.6869 362.953,543.55 357.033,561.46 " fill="none" id="Start-to-Motor1Running" style="stroke:#181818;stroke-width:1.0;"/><polygon fill="#181818" points="355.15,567.1569,361.7725,559.867,356.7192,562.4095,354.1767,557.3562,355.15,567.1569" style="stroke:#181818;stroke-width:1.0;"/><text fill="#000000" font-family="sans-serif" font-size="13" lengthAdjust="spacing" textLength="74.0581" x="415.9827" y="518.3638">Motor 1 ON</text><text fill="#000000" font-family="sans-serif" font-size="13" lengthAdjust="spacing" textLength="138.0234" x="384" y="533.4966">Wait for Sensor Input</text></g><!--link Motor1Running to CheckSensor--><g id="link_Motor1Running_CheckSensor"><path d="M327.35,617.7569 C312.2,635.7069 295.5795,655.4013 280.4495,673.3313 " fill="none" id="Motor1Running-to-CheckSensor" style="stroke:#181818;stroke-width:1.0;"/><polygon fill="#181818" points="276.58,677.9169,285.4412,673.6182,279.8045,674.0956,279.3272,668.4589,276.58,677.9169" style="stroke:#181818;stroke-width:1.0;"/></g><!--link CheckSensor to CheckSensor--><g id="link_CheckSensor_CheckSensor"><path d="M311.69,692.8969 C330.96,692.7869 346.53,696.2469 346.53,703.2969 C346.53,710.3469 336.9599,713.8411 317.6899,713.7311 " fill="none" id="CheckSensor-to-CheckSensor" style="stroke:#181818;stroke-width:1.0;"/><polygon fill="#181818" points="311.69,713.6969,320.667,717.7482,316.6899,713.7254,320.7127,709.7483,311.69,713.6969" style="stroke:#181818;stroke-width:1.0;"/><text fill="#000000" font-family="sans-serif" font-size="13" lengthAdjust="spacing" textLength="154.064" x="352.53" y="707.8638">Sensor Detects Nothing</text></g><!--link CheckSensor to IncreaseCounterA--><g id="link_CheckSensor_IncreaseCounterA"><path d="M210.18,728.5369 C198.54,736.6169 187.06,746.6069 179,758.2969 C169.54,772.0069 165.9173,784.3399 163.7873,798.9199 " fill="none" id="CheckSensor-to-IncreaseCounterA" style="stroke:#181818;stroke-width:1.0;"/><polygon fill="#181818" points="162.92,804.8569,168.179,796.5296,163.6428,799.9094,160.263,795.3732,162.92,804.8569" style="stroke:#181818;stroke-width:1.0;"/><text fill="#000000" font-family="sans-serif" font-size="13" lengthAdjust="spacing" textLength="111.8394" x="180" y="771.3638">Sensor Detects A</text></g><!--link CheckSensor to IncreaseCounterB--><g id="link_CheckSensor_IncreaseCounterB"><path d="M275.52,728.6969 C293.14,750.7169 315.1818,778.2717 332.7818,800.2717 " fill="none" id="CheckSensor-to-IncreaseCounterB" style="stroke:#181818;stroke-width:1.0;"/><polygon fill="#181818" points="336.53,804.9569,334.0312,795.4303,333.4065,801.0525,327.7843,800.4278,336.53,804.9569" style="stroke:#181818;stroke-width:1.0;"/><text fill="#000000" font-family="sans-serif" font-size="13" lengthAdjust="spacing" textLength="111.8647" x="313" y="771.3638">Sensor Detects B</text></g><!--link IncreaseCounterA to Motor2Right--><g id="link_IncreaseCounterA_Motor2Right"><path d="M142.65,855.6969 C126.09,877.7169 105.457,905.1621 88.907,927.1621 " fill="none" id="IncreaseCounterA-to-Motor2Right" style="stroke:#181818;stroke-width:1.0;"/><polygon fill="#181818" points="85.3,931.9569,93.907,927.1694,88.3058,927.9612,87.5139,922.3601,85.3,931.9569" style="stroke:#181818;stroke-width:1.0;"/><text fill="#000000" font-family="sans-serif" font-size="13" lengthAdjust="spacing" textLength="111.8394" x="121" y="898.3638">Sensor Detects A</text></g><!--link IncreaseCounterB to Motor2Left--><g id="link_IncreaseCounterB_Motor2Left"><path d="M373.18,855.6969 C388.68,877.7169 407.9143,905.052 423.4143,927.052 " fill="none" id="IncreaseCounterB-to-Motor2Left" style="stroke:#181818;stroke-width:1.0;"/><polygon fill="#181818" points="426.87,931.9569,424.9563,922.2957,423.9902,927.8695,418.4165,926.9033,426.87,931.9569" style="stroke:#181818;stroke-width:1.0;"/><text fill="#000000" font-family="sans-serif" font-size="13" lengthAdjust="spacing" textLength="111.8647" x="406" y="898.3638">Sensor Detects B</text></g><!--link Motor2Right to Idle--><g id="link_Motor2Right_Idle"><path d="M47.03,932.1369 C29.24,908.1269 6,869.4469 6,831.2969 C6,322.2969 6,322.2969 6,322.2969 C6,246.0469 275.5466,210.139 361.6466,200.579 " fill="none" id="Motor2Right-to-Idle" style="stroke:#181818;stroke-width:1.0;"/><polygon fill="#181818" points="367.61,199.9169,358.2235,196.9345,362.6405,200.4687,359.1064,204.8856,367.61,199.9169" style="stroke:#181818;stroke-width:1.0;"/><text fill="#000000" font-family="sans-serif" font-size="13" lengthAdjust="spacing" textLength="241.5918" x="7" y="596.8638">Motor 2 Stops when Conveyor empty</text></g><!--link Motor2Left to Idle--><g id="link_Motor2Left_Idle"><path d="M492.28,932.1969 C504.67,924.1069 517.02,914.0969 526,902.2969 C546.1,875.9069 549,864.4669 549,831.2969 C549,322.2969 549,322.2969 549,322.2969 C549,286.9169 538.59,275.7269 513,251.2969 C486.06,225.5869 450.5574,212.346 424.1174,204.936 " fill="none" id="Motor2Left-to-Idle" style="stroke:#181818;stroke-width:1.0;"/><polygon fill="#181818" points="418.34,203.3169,425.9267,209.5972,423.1545,204.6662,428.0855,201.894,418.34,203.3169" style="stroke:#181818;stroke-width:1.0;"/><text fill="#000000" font-family="sans-serif" font-size="13" lengthAdjust="spacing" textLength="241.5918" x="550" y="596.8638">Motor 2 Stops when Conveyor empty</text></g><!--link ResetCheck to CounterReset--><g id="link_ResetCheck_CounterReset"><path d="M170.71,348.5469 C160.4,356.5869 150.73,366.5369 145,378.2969 C137.79,393.0869 140.346,405.4757 147.406,419.5257 " fill="none" id="ResetCheck-to-CounterReset" style="stroke:#181818;stroke-width:1.0;"/><polygon fill="#181818" points="150.1,424.8869,149.6332,415.0491,147.855,420.4192,142.4849,418.641,150.1,424.8869" style="stroke:#181818;stroke-width:1.0;"/><text fill="#000000" font-family="sans-serif" font-size="13" lengthAdjust="spacing" textLength="139.6865" x="146" y="391.3638">Reset Button Pressed</text></g><!--link ResetCheck to Motor1Running--><g id="link_ResetCheck_Motor1Running"><path d="M259.09,348.7269 C270.58,356.8169 281.94,366.7469 290,378.2969 C311.55,409.1769 333.0638,512.2535 342.4238,561.2335 " fill="none" id="ResetCheck-to-Motor1Running" style="stroke:#181818;stroke-width:1.0;"/><polygon fill="#181818" points="343.55,567.1269,345.7896,557.536,342.6115,562.2157,337.9318,559.0376,343.55,567.1269" style="stroke:#181818;stroke-width:1.0;"/><text fill="#000000" font-family="sans-serif" font-size="13" lengthAdjust="spacing" textLength="58.7095" x="325" y="454.8638">No Reset</text></g><!--link CounterReset to Motor1Running--><g id="link_CounterReset_Motor1Running"><path d="M167.44,475.4169 C169.81,494.5069 176,520.6569 192,537.2969 C198.88,544.4469 238.2425,557.8791 278.1925,570.3491 " fill="none" id="CounterReset-to-Motor1Running" style="stroke:#181818;stroke-width:1.0;"/><polygon fill="#181818" points="283.92,572.1369,276.5206,565.6369,279.1471,570.6471,274.137,573.2735,283.92,572.1369" style="stroke:#181818;stroke-width:1.0;"/><text fill="#000000" font-family="sans-serif" font-size="13" lengthAdjust="spacing" textLength="92.9805" x="193" y="525.8638">Counter Reset</text></g><!--link Stop to Idle--><g id="link_Stop_Idle"><path d="M459.61,94.7569 C452.31,108.6669 442.64,126.2569 433,141.2969 C426.58,151.3169 422.5309,157.1351 415.6509,166.2651 " fill="none" id="Stop-to-Idle" style="stroke:#181818;stroke-width:1.0;"/><polygon fill="#181818" points="412.04,171.0569,420.6509,166.2764,415.0491,167.0637,414.2618,161.4619,412.04,171.0569" style="stroke:#181818;stroke-width:1.0;"/><text fill="#000000" font-family="sans-serif" font-size="13" lengthAdjust="spacing" textLength="192.5688" x="443" y="137.3638">System Stopped all motors of</text></g><!--SRC=[bPB1JeGm48RlVOevct3OFUx1PC4za2WQCF6W7WWCIsDfIJjeyEbjOLaga1XFRMV-_vjcPeYJG7XMb0l8UaFOGAGaQINWIQi2ZM7izUOTWk0Muj9A3vCibfnuBlWtbemDAQSvPQJQgCRY0vXtz-odm8KjtRAjTI7AADSqgr8Kc3iP6nDEyg18wLtQISdbsKg7D-pWCNcJBpadgEmpGsdi4Sks8yP-Mnnag7WHCV-nJ1ucr1qI5cGWKLHR2bkvObbezzb8TP9G7zVMur-U4DQcq7PtIRwsOP_oSqrRbLRasNEF5MqNyfdUoCOExy6DnC1NZT8joIVsDefDIptpmF_oiHGDqZp-os-7g0MCPzWHANdTc8LbkGw96crsG3viIteHJFfXuzQBxi8jbf0B0OqZ653L3m00]--></g></svg>