<svg xmlns="http://www.w3.org/2000/svg" xmlns:xlink="http://www.w3.org/1999/xlink" contentStyleType="text/css" height="394px" preserveAspectRatio="none" style="width:852px;height:394px;background:#FFFFFF;" version="1.1" viewBox="0 0 852 394" width="852px" zoomAndPan="magnify"><defs/><g><text fill="#000000" font-family="sans-serif" font-size="14" font-weight="bold" lengthAdjust="spacing" textLength="824.6465" x="10" y="27.9951">Motor Control Task with Trapezoidal Functionblok and StartStop Functionblok and ScaleOutput function</text><line style="stroke:#181818;stroke-width:0.5;stroke-dasharray:5.0,5.0;" x1="126.4526" x2="126.4526" y1="118.5938" y2="313.3906"/><line style="stroke:#181818;stroke-width:0.5;stroke-dasharray:5.0,5.0;" x1="226.3628" x2="226.3628" y1="118.5938" y2="313.3906"/><line style="stroke:#181818;stroke-width:0.5;stroke-dasharray:5.0,5.0;" x1="483.4351" x2="483.4351" y1="118.5938" y2="313.3906"/><line style="stroke:#181818;stroke-width:0.5;stroke-dasharray:5.0,5.0;" x1="661.3501" x2="661.3501" y1="118.5938" y2="313.3906"/><text fill="#000000" font-family="sans-serif" font-size="14" lengthAdjust="spacing" textLength="31.9102" x="108.4526" y="115.292">User</text><ellipse cx="127.4077" cy="50.7969" fill="#E2E2F0" rx="8" ry="8" style="stroke:#181818;stroke-width:0.5;"/><path d="M127.4077,58.7969 L127.4077,85.7969 M114.4077,66.7969 L140.4077,66.7969 M127.4077,85.7969 L114.4077,100.7969 M127.4077,85.7969 L140.4077,100.7969 " fill="none" style="stroke:#181818;stroke-width:0.5;"/><text fill="#000000" font-family="sans-serif" font-size="14" lengthAdjust="spacing" textLength="31.9102" x="108.4526" y="325.3857">User</text><ellipse cx="127.4077" cy="337.1875" fill="#E2E2F0" rx="8" ry="8" style="stroke:#181818;stroke-width:0.5;"/><path d="M127.4077,345.1875 L127.4077,372.1875 M114.4077,353.1875 L140.4077,353.1875 M127.4077,372.1875 L114.4077,387.1875 M127.4077,372.1875 L140.4077,387.1875 " fill="none" style="stroke:#181818;stroke-width:0.5;"/><rect fill="#E2E2F0" height="30.2969" rx="2.5" ry="2.5" style="stroke:#181818;stroke-width:0.5;" width="140.3418" x="156.3628" y="87.2969"/><text fill="#000000" font-family="sans-serif" font-size="14" lengthAdjust="spacing" textLength="126.3418" x="163.3628" y="107.292">StartStopFunction</text><rect fill="#E2E2F0" height="30.2969" rx="2.5" ry="2.5" style="stroke:#181818;stroke-width:0.5;" width="140.3418" x="156.3628" y="312.3906"/><text fill="#000000" font-family="sans-serif" font-size="14" lengthAdjust="spacing" textLength="126.3418" x="163.3628" y="332.3857">StartStopFunction</text><rect fill="#E2E2F0" height="30.2969" rx="2.5" ry="2.5" style="stroke:#181818;stroke-width:0.5;" width="186.915" x="390.4351" y="87.2969"/><text fill="#000000" font-family="sans-serif" font-size="14" lengthAdjust="spacing" textLength="172.915" x="397.4351" y="107.292">TrapezoidalMotorControl</text><rect fill="#E2E2F0" height="30.2969" rx="2.5" ry="2.5" style="stroke:#181818;stroke-width:0.5;" width="186.915" x="390.4351" y="312.3906"/><text fill="#000000" font-family="sans-serif" font-size="14" lengthAdjust="spacing" textLength="172.915" x="397.4351" y="332.3857">TrapezoidalMotorControl</text><rect fill="#E2E2F0" height="30.2969" rx="2.5" ry="2.5" style="stroke:#181818;stroke-width:0.5;" width="149.8438" x="587.3501" y="87.2969"/><text fill="#000000" font-family="sans-serif" font-size="14" lengthAdjust="spacing" textLength="135.8438" x="594.3501" y="107.292">ScaleFunctionBlock</text><rect fill="#E2E2F0" height="30.2969" rx="2.5" ry="2.5" style="stroke:#181818;stroke-width:0.5;" width="149.8438" x="587.3501" y="312.3906"/><text fill="#000000" font-family="sans-serif" font-size="14" lengthAdjust="spacing" textLength="135.8438" x="594.3501" y="332.3857">ScaleFunctionBlock</text><polygon fill="#181818" points="214.5337,145.7266,224.5337,149.7266,214.5337,153.7266,218.5337,149.7266" style="stroke:#181818;stroke-width:1.0;"/><line style="stroke:#181818;stroke-width:1.0;" x1="127.4077" x2="220.5337" y1="149.7266" y2="149.7266"/><text fill="#000000" font-family="sans-serif" font-size="13" lengthAdjust="spacing" textLength="70.6177" x="134.4077" y="144.6606">Press Start</text><polygon fill="#181818" points="471.8926,174.8594,481.8926,178.8594,471.8926,182.8594,475.8926,178.8594" style="stroke:#181818;stroke-width:1.0;"/><line style="stroke:#181818;stroke-width:1.0;" x1="226.5337" x2="477.8926" y1="178.8594" y2="178.8594"/><text fill="#000000" font-family="sans-serif" font-size="13" lengthAdjust="spacing" textLength="233.3589" x="233.5337" y="173.7935">Motor ON with Trapezoidal Function</text><polygon fill="#181818" points="650.272,203.9922,660.272,207.9922,650.272,211.9922,654.272,207.9922" style="stroke:#181818;stroke-width:1.0;"/><line style="stroke:#181818;stroke-width:1.0;" x1="483.8926" x2="656.272" y1="207.9922" y2="207.9922"/><text fill="#000000" font-family="sans-serif" font-size="13" lengthAdjust="spacing" textLength="87.915" x="490.8926" y="202.9263">Apply Scaling</text><polygon fill="#181818" points="494.8926,233.125,484.8926,237.125,494.8926,241.125,490.8926,237.125" style="stroke:#181818;stroke-width:1.0;"/><line style="stroke:#181818;stroke-width:1.0;" x1="488.8926" x2="661.272" y1="237.125" y2="237.125"/><text fill="#000000" font-family="sans-serif" font-size="13" lengthAdjust="spacing" textLength="132.1519" x="500.8926" y="232.0591">Return Scaled Value</text><polygon fill="#181818" points="214.5337,262.2578,224.5337,266.2578,214.5337,270.2578,218.5337,266.2578" style="stroke:#181818;stroke-width:1.0;"/><line style="stroke:#181818;stroke-width:1.0;" x1="127.4077" x2="220.5337" y1="266.2578" y2="266.2578"/><text fill="#000000" font-family="sans-serif" font-size="13" lengthAdjust="spacing" textLength="68.415" x="134.4077" y="261.1919">Press Stop</text><polygon fill="#181818" points="471.8926,291.3906,481.8926,295.3906,471.8926,299.3906,475.8926,295.3906" style="stroke:#181818;stroke-width:1.0;"/><line style="stroke:#181818;stroke-width:1.0;" x1="226.5337" x2="477.8926" y1="295.3906" y2="295.3906"/><text fill="#000000" font-family="sans-serif" font-size="13" lengthAdjust="spacing" textLength="66.8853" x="233.5337" y="290.3247">Motor OFF</text><!--SRC=[dP112i8m44NtSugvW1Tm8QZGdLQqkX_JgA4X4v89egUtjOfAMn7NB__zdn4ZLkE2XGFEsKbWYmN52iz6JbW4ylhAfYIBMN9A3BkzvGh9bRWH2h8HzZr8aTLv4fy43my8GAffsKOTmDTHeumd9o_FK_D1toRSLpv6VXgQkcTwPbbL04qDZYPTEuvn5NICBO4khqC3fNMqlLI-7BuFm52wMTDPMZkdtjlB7Hbt1EXvytNIMaiAhbMNk2ERz6_VP__dxxFi1W00]--></g></svg>